<svg width="24" height="24" viewBox="0 0 24 24" fill="none" xmlns="http://www.w3.org/2000/svg">
<path fill-rule="evenodd" clip-rule="evenodd" d="M3.84499 4.33707C3.01642 5.16334 2.53488 6.46491 2.53488 8.38775V13.4898C2.53488 15.9748 3.04003 17.2185 3.80769 17.8883C4.6007 18.5803 5.87404 18.8469 7.90698 18.8469H8.4186C8.708 18.8469 8.98954 18.937 9.21097 19.0465C9.42961 19.1545 9.6769 19.3247 9.85387 19.5648L11.386 21.602C11.6001 21.8866 11.8298 21.9694 12 21.9694C12.1702 21.9694 12.3999 21.8866 12.614 21.602L14.1488 19.5612L14.1518 19.5573C14.4891 19.1147 15.0207 18.8469 15.5814 18.8469H16.093C18.0212 18.8469 19.3264 18.3667 20.155 17.5405C20.9836 16.7142 21.4651 15.4126 21.4651 13.4898V8.38775C21.4651 7.96509 21.8087 7.62245 22.2326 7.62245C22.6564 7.62245 23 7.96509 23 8.38775V13.4898C23 15.6486 22.4583 17.4082 21.2403 18.6228C20.0224 19.8373 18.2578 20.3776 16.093 20.3776H15.5814C15.5081 20.3776 15.4264 20.4154 15.3748 20.4821C15.3745 20.4826 15.3741 20.483 15.3738 20.4835L13.8419 22.5204C13.3805 23.1338 12.7201 23.5 12 23.5C11.2799 23.5 10.6195 23.1338 10.1581 22.5204L8.62199 20.4779C8.61971 20.4758 8.6151 20.4716 8.6076 20.4658C8.5891 20.4514 8.56224 20.4341 8.52926 20.4178C8.49635 20.4016 8.46498 20.39 8.43981 20.3832C8.425 20.3793 8.41621 20.3779 8.41343 20.3776H7.90698C5.84689 20.3776 4.05047 20.134 2.79696 19.0402C1.51811 17.9244 1 16.1068 1 13.4898V8.38775C1 6.22897 1.54172 4.46932 2.75966 3.25477C3.9776 2.04021 5.74217 1.5 7.90698 1.5H12C12.4238 1.5 12.7674 1.84264 12.7674 2.26531C12.7674 2.68797 12.4238 3.03061 12 3.03061H7.90698C5.97876 3.03061 4.67356 3.51081 3.84499 4.33707Z" fill="#292D32"/>
<path fill-rule="evenodd" clip-rule="evenodd" d="M19.5755 3.15568C19.1944 3.04195 18.8284 3.1611 18.6745 3.38061C18.5249 3.59397 18.2805 3.72358 18.0173 3.72901C17.7542 3.73445 17.5044 3.61505 17.3459 3.40805C17.1552 3.1591 16.776 3.0523 16.4281 3.15471C15.8103 3.34915 15.4583 4.10579 15.7174 4.87305C15.9334 5.50677 16.4173 6.02019 16.9506 6.38585C17.2132 6.56592 17.4711 6.69829 17.6824 6.78316C17.8614 6.85508 17.965 6.87622 17.9946 6.88227C17.9968 6.88271 17.9986 6.88307 18 6.88337C18.0014 6.88304 18.0034 6.88263 18.0059 6.88212C18.0362 6.87584 18.1406 6.85422 18.3206 6.7818C18.5341 6.69594 18.7943 6.56238 19.0583 6.38154C19.5959 6.01336 20.0756 5.50173 20.2807 4.87966L20.2826 4.87378C20.5448 4.09874 20.1839 3.33934 19.5755 3.15568ZM17.9866 1.84406C18.6395 1.45035 19.4418 1.42748 20.0524 1.61015L20.0539 1.61058C21.8044 2.13768 22.2961 4.0249 21.8388 5.38168C21.486 6.44887 20.7097 7.21782 19.9939 7.70805C19.6309 7.95663 19.2647 8.14683 18.9402 8.27737C18.6423 8.39724 18.2984 8.5 18.0002 8.5C17.7028 8.5 17.3609 8.3985 17.0635 8.27903C16.7403 8.14919 16.3759 7.95983 16.0143 7.71182C15.2991 7.22146 14.5264 6.45357 14.163 5.38607L14.1625 5.38462C13.7014 4.02148 14.1996 2.15245 15.9398 1.6126L15.9479 1.61011C16.5776 1.42174 17.349 1.46991 17.9866 1.84406Z" fill="#292D32"/>
<path fill-rule="evenodd" clip-rule="evenodd" d="M15 11.5C15 10.9477 15.4457 10.5 15.9956 10.5H16.0044C16.5543 10.5 17 10.9477 17 11.5C17 12.0523 16.5543 12.5 16.0044 12.5H15.9956C15.4457 12.5 15 12.0523 15 11.5Z" fill="#292D32"/>
<path fill-rule="evenodd" clip-rule="evenodd" d="M11 11.5C11 10.9477 11.4457 10.5 11.9955 10.5H12.0045C12.5543 10.5 13 10.9477 13 11.5C13 12.0523 12.5543 12.5 12.0045 12.5H11.9955C11.4457 12.5 11 12.0523 11 11.5Z" fill="#292D32"/>
<path fill-rule="evenodd" clip-rule="evenodd" d="M7 11.5C7 10.9477 7.44571 10.5 7.99553 10.5H8.00447C8.55429 10.5 9 10.9477 9 11.5C9 12.0523 8.55429 12.5 8.00447 12.5H7.99553C7.44571 12.5 7 12.0523 7 11.5Z" fill="#292D32"/>
</svg>
