<svg width="24" height="24" viewBox="0 0 24 24" fill="none" xmlns="http://www.w3.org/2000/svg">
<path fill-rule="evenodd" clip-rule="evenodd" d="M9.52917 1.47403C9.82929 1.77332 9.82996 2.25924 9.53067 2.55936L6.90813 5.18914H17.5925L14.9701 2.55943C14.6708 2.25932 14.6714 1.7734 14.9716 1.47411C15.2717 1.17482 15.7576 1.17549 16.0569 1.4756L19.7602 5.18914H20.2109C20.8167 5.18914 21.616 5.21047 22.2458 5.63232C22.9582 6.10947 23.25 6.93061 23.25 8.00309C23.25 9.17299 22.9858 10.0645 22.2019 10.5163C22.0137 10.6247 21.8176 10.693 21.6268 10.7367L19.9824 19.3115C19.8014 20.2567 19.5649 21.3043 18.8283 22.0761C18.0589 22.8824 16.8946 23.25 15.2072 23.25H9.03698C7.44906 23.25 6.29139 22.8533 5.49532 22.0471C4.72088 21.2628 4.40912 20.2073 4.23791 19.1693L2.8613 10.734C2.67429 10.6902 2.4824 10.6225 2.29807 10.5163C1.51416 10.0645 1.25 9.17299 1.25 8.00309C1.25 6.93061 1.54181 6.10947 2.2542 5.63232C2.88403 5.21047 3.68333 5.18914 4.28907 5.18914H4.74046L8.44384 1.47553C8.74313 1.17541 9.22905 1.17474 9.52917 1.47403ZM4.43005 10.817L5.75233 18.9195C5.75229 18.9193 5.75236 18.9197 5.75233 18.9195C5.90856 19.8663 6.15456 20.5303 6.58748 20.9687C6.99884 21.3853 7.69838 21.7151 9.03698 21.7151H15.2072C16.7021 21.7151 17.3644 21.3869 17.718 21.0164C18.1044 20.6115 18.2875 20.0015 18.4749 19.0229L20.0486 10.817H4.43005ZM3.10835 6.90758C2.99959 6.98043 2.78488 7.18255 2.78488 8.00309C2.78488 9.0257 3.02373 9.16299 3.06364 9.18594C3.1234 9.22038 3.23525 9.25736 3.4594 9.27383C3.63029 9.28639 3.8064 9.28507 4.02512 9.28343C4.10655 9.28281 4.19389 9.28216 4.28907 9.28216H20.2109C20.3061 9.28216 20.3935 9.28281 20.4749 9.28343C20.6936 9.28507 20.8697 9.28639 21.0406 9.27383C21.2647 9.25736 21.3758 9.22087 21.4355 9.18643C21.4754 9.16348 21.7151 9.0257 21.7151 8.00309C21.7151 7.18254 21.5004 6.98043 21.3916 6.90758C21.2003 6.77943 20.8638 6.72402 20.2109 6.72402H4.28907C3.6362 6.72402 3.29969 6.77943 3.10835 6.90758ZM8.6686 13.7849C9.09245 13.7849 9.43605 14.1285 9.43605 14.5523C9.43605 16.0931 10.7092 17.3663 12.25 17.3663C13.7908 17.3663 15.064 16.0931 15.064 14.5523C15.064 14.1285 15.4075 13.7849 15.8314 13.7849C16.2552 13.7849 16.5988 14.1285 16.5988 14.5523C16.5988 16.9408 14.6385 18.9012 12.25 18.9012C9.8615 18.9012 7.90116 16.9408 7.90116 14.5523C7.90116 14.1285 8.24476 13.7849 8.6686 13.7849Z" fill="#1F2029"/>
</svg>
