<svg width="24" height="24" viewBox="0 0 24 24" fill="none" xmlns="http://www.w3.org/2000/svg">
<path fill-rule="evenodd" clip-rule="evenodd" d="M4.44743 9.89443C3.95345 10.1414 3.35278 9.94119 3.10579 9.44721C2.8588 8.95324 3.05903 8.35256 3.553 8.10557L5.54836 7.10789C5.55185 7.10612 5.55536 7.10437 5.55887 7.10264L11.553 4.10557C11.8345 3.96481 12.1659 3.96481 12.4474 4.10557L18.4402 7.10196C18.4446 7.10414 18.4491 7.10635 18.4535 7.10859L20.4474 8.10557C20.9414 8.35256 21.1416 8.95324 20.8946 9.44721C20.6476 9.94119 20.047 10.1414 19.553 9.89443L19.0002 9.61803V13.2415C19.0002 14.0465 19.0002 15.7108 18.956 16.252C18.9101 16.8141 18.8115 17.3308 18.5642 17.8162C18.1807 18.5688 17.5688 19.1807 16.8162 19.5642C16.3308 19.8115 15.8141 19.9101 15.252 19.956C14.7108 20.0002 14.0465 20.0002 13.2415 20.0002H10.7589C9.95396 20.0002 9.2896 20.0002 8.74839 19.956C8.1863 19.9101 7.66959 19.8115 7.18426 19.5642C6.43161 19.1807 5.81969 18.5688 5.43619 17.8162C5.1889 17.3308 5.09034 16.8141 5.04441 16.252C5.0002 15.7108 5.00021 14.0465 5.00022 13.2415V9.61804L4.44743 9.89443ZM7.00022 8.61804V13.2002C7.00022 14.0568 7.001 15.6391 7.03777 16.0892C7.07359 16.5276 7.13852 16.7518 7.21821 16.9082C7.40995 17.2845 7.71592 17.5905 8.09224 17.7822C8.24864 17.8619 8.47284 17.9268 8.91126 17.9626C9.36135 17.9994 9.94364 18.0002 10.8002 18.0002H13.2002C14.0568 18.0002 14.6391 17.9994 15.0892 17.9626C15.5276 17.9268 15.7518 17.8619 15.9082 17.7822C16.2845 17.5905 16.5905 17.2845 16.7822 16.9082C16.8619 16.7518 16.9268 16.5276 16.9626 16.0892C16.9994 15.6391 17.0002 14.0568 17.0002 13.2002V8.61803L12.0002 6.11804L7.00022 8.61804Z" fill="#040415"/>
</svg>
