<svg width="24" height="24" viewBox="0 0 24 24" fill="none" xmlns="http://www.w3.org/2000/svg">
<path fill-rule="evenodd" clip-rule="evenodd" d="M11.7217 1.26915C12.7812 1.24428 13.8832 1.5138 14.7571 2.12632L21.0795 6.56177C21.7135 7.00443 22.2479 7.68689 22.6218 8.40418C22.9959 9.12178 23.25 9.95114 23.25 10.727V18.1858C23.25 20.9757 20.9736 23.2676 18.1747 23.2676H6.32535C3.52518 23.2676 1.25 20.9745 1.25 18.1755V10.5835C1.25 9.85558 1.47962 9.06767 1.81707 8.37903C2.15455 7.6903 2.63705 7.02502 3.21364 6.57581L8.72899 2.27265C9.5729 1.61544 10.6622 1.29403 11.7217 1.26915ZM9.67186 3.48534L4.15706 7.78807C3.81296 8.05604 3.46115 8.51288 3.19503 9.05597C2.92875 9.59938 2.78488 10.1537 2.78488 10.5835V18.1755C2.78488 20.1305 4.37761 21.7307 6.32535 21.7307H18.1747C20.1236 21.7307 21.7151 20.1293 21.7151 18.1858V10.727C21.7151 10.263 21.5548 9.67846 21.2612 9.11535C20.9676 8.55218 20.5806 8.08689 20.2019 7.82259L20.2003 7.8215L13.8769 3.38535C13.3183 2.99392 12.5526 2.7869 11.7576 2.80557C10.9626 2.82424 10.2093 3.06688 9.67186 3.48534Z" fill="#E50D32"/>
<path fill-rule="evenodd" clip-rule="evenodd" d="M12.2507 14.5594C12.6745 14.5594 13.0181 14.9034 13.0181 15.3278V18.4015C13.0181 18.8259 12.6745 19.1699 12.2507 19.1699C11.8268 19.1699 11.4833 18.8259 11.4833 18.4015V15.3278C11.4833 14.9034 11.8268 14.5594 12.2507 14.5594Z" fill="#E50D32"/>
</svg>
