<svg width="24" height="24" viewBox="0 0 24 24" fill="none" xmlns="http://www.w3.org/2000/svg">
<g clip-path="url(#clip0_491_276)">
<path fill-rule="evenodd" clip-rule="evenodd" d="M8.60438 1.15665C8.6525 0.756683 9.0563 0.452148 9.53851 0.452148H15.3842C15.867 0.452148 16.271 0.757337 16.3185 1.15781L17.1446 8.12824C17.424 10.4963 15.3028 12.4521 12.4551 12.4521C9.60742 12.4521 7.48611 10.4966 7.76552 8.12858L8.60438 1.15665ZM10.3879 2.01737L9.63414 8.2818C9.46341 9.73254 10.7216 10.8869 12.4551 10.8869C14.1887 10.8869 15.4471 9.73305 15.2761 8.28214L14.5336 2.01737H10.3879Z" fill="#1F2029"/>
<path fill-rule="evenodd" clip-rule="evenodd" d="M14.2336 0.709582C14.3855 0.545664 14.6012 0.452148 14.8275 0.452148H18.0849C19.5661 0.452148 20.7771 0.724886 21.6589 1.52074C22.5302 2.30707 22.9287 3.46997 23.1291 4.88394C23.1304 4.89327 23.1315 4.90263 23.1325 4.912L23.4317 7.78336C23.6921 10.3398 21.743 12.4521 19.1102 12.4521C16.9376 12.4521 15.002 10.7507 14.7783 8.62975L14.7781 8.6273L14.0305 1.31252C14.008 1.09252 14.0818 0.873499 14.2336 0.709582ZM15.7125 2.01737L16.3719 8.46933L16.372 8.47046C16.5121 9.7925 17.7589 10.8869 19.1102 10.8869C20.792 10.8869 22.004 9.57718 21.8377 7.93921L21.5402 5.08484C21.3558 3.79448 21.0287 3.08272 20.5719 2.67051C20.1241 2.26637 19.402 2.01737 18.0849 2.01737H15.7125Z" fill="#1F2029"/>
<path fill-rule="evenodd" clip-rule="evenodd" d="M3.24257 1.52074C4.12542 0.724886 5.33778 0.452148 6.8206 0.452148H10.0817C10.3083 0.452148 10.5243 0.545681 10.6763 0.709623C10.8283 0.873566 10.9022 1.09262 10.8797 1.31263L10.1314 8.62507C9.91972 10.7503 7.97864 12.4521 5.80484 12.4521C3.16931 12.4521 1.21807 10.3401 1.47838 7.78391L1.76702 4.91481C1.76806 4.9045 1.76931 4.89421 1.77076 4.88394C1.97137 3.46997 2.37028 2.30707 3.24257 1.52074ZM3.3616 5.08347L3.07449 7.93731C2.90744 9.5757 4.1209 10.8869 5.80484 10.8869C7.15913 10.8869 8.40416 9.79177 8.53509 8.474L8.53529 8.47202L9.19562 2.01737H6.8206C5.50207 2.01737 4.77913 2.26637 4.33081 2.67051C3.8737 3.08257 3.5463 3.79398 3.3616 5.08347Z" fill="#1F2029"/>
<path fill-rule="evenodd" clip-rule="evenodd" d="M9.73996 16.3604C10.4249 15.7067 11.3839 15.4521 12.4551 15.4521C13.5263 15.4521 14.4853 15.7067 15.1702 16.3604C15.8551 17.0142 16.1217 17.9296 16.1217 18.9521V21.6445C16.1217 22.0905 15.7429 22.4521 15.2756 22.4521H9.63457C9.16725 22.4521 8.78841 22.0905 8.78841 21.6445V18.9521C8.78841 17.9296 9.05505 17.0142 9.73996 16.3604ZM10.9366 17.5027C10.6823 17.7455 10.4807 18.1762 10.4807 18.9521V20.8368H14.4294V18.9521C14.4294 18.1762 14.2279 17.7455 13.9736 17.5027C13.7192 17.2599 13.268 17.0675 12.4551 17.0675C11.6422 17.0675 11.1909 17.2599 10.9366 17.5027Z" fill="#1F2029"/>
<path fill-rule="evenodd" clip-rule="evenodd" d="M3.26944 10.4521C3.69291 10.4521 4.03619 10.7803 4.03619 11.185V15.5727C4.03619 17.6938 4.48563 18.9894 5.3055 19.7731C6.12536 20.5567 7.48081 20.9864 9.6999 20.9864H15.2103C17.4294 20.9864 18.7848 20.5567 19.6047 19.7731C20.4245 18.9894 20.874 17.6938 20.874 15.5727V11.185C20.874 10.7803 21.2173 10.4521 21.6407 10.4521C22.0642 10.4521 22.4075 10.7803 22.4075 11.185V15.5727C22.4075 17.8392 21.9368 19.6168 20.689 20.8096C19.4412 22.0023 17.5814 22.4521 15.2103 22.4521H9.6999C7.32873 22.4521 5.46895 22.0023 4.22115 20.8096C2.97335 19.6168 2.5027 17.8392 2.5027 15.5727V11.185C2.5027 10.7803 2.84598 10.4521 3.26944 10.4521Z" fill="#1F2029"/>
</g>
<defs>
<clipPath id="clip0_491_276">
<rect width="24" height="24" fill="white"/>
</clipPath>
</defs>
</svg>
