<svg width="24" height="24" viewBox="0 0 24 24" fill="none" xmlns="http://www.w3.org/2000/svg">
<path fill-rule="evenodd" clip-rule="evenodd" d="M15.3 12.72C16.3796 11.7855 17 10.4279 17 9C17 6.23858 14.7614 4 12 4C9.23858 4 7 6.23858 7 9C6.99998 10.4279 7.62035 11.7855 8.7 12.72C5.84094 14.0146 4.00301 16.8615 4 20C4 20.5523 4.44772 21 5 21C5.55228 21 6 20.5523 6 20C6 16.6863 8.68629 14 12 14C15.3137 14 18 16.6863 18 20C18 20.5523 18.4477 21 19 21C19.5523 21 20 20.5523 20 20C19.997 16.8615 18.1591 14.0146 15.3 12.72ZM12 12C10.3431 12 9 10.6569 9 9C9 7.34315 10.3431 6 12 6C13.6569 6 15 7.34315 15 9C15 9.79565 14.6839 10.5587 14.1213 11.1213C13.5587 11.6839 12.7956 12 12 12Z" fill="black"/>
</svg>
