<svg width="17" height="17" viewBox="0 0 17 17" fill="none" xmlns="http://www.w3.org/2000/svg">
<path fill-rule="evenodd" clip-rule="evenodd" d="M6.16842 0.312971C6.38669 0.530641 6.38718 0.884042 6.16951 1.10231L3.47551 3.80376C3.25784 4.02203 2.90443 4.02252 2.68616 3.80485C2.46789 3.58718 2.4674 3.23378 2.68507 3.01551L5.37908 0.31406C5.59675 0.095788 5.95015 0.0953005 6.16842 0.312971Z" fill="#E50D32"/>
<path fill-rule="evenodd" clip-rule="evenodd" d="M10.1209 0.312928C10.3392 0.0952579 10.6926 0.0957454 10.9102 0.314017L13.6042 3.01546C13.8219 3.23374 13.8214 3.58714 13.6032 3.80481C13.3849 4.02248 13.0315 4.02199 12.8138 3.80372L10.1198 1.10227C9.90214 0.884 9.90263 0.530599 10.1209 0.312928Z" fill="#E50D32"/>
<path fill-rule="evenodd" clip-rule="evenodd" d="M1.50156 4.2649C1.42245 4.31789 1.2663 4.46488 1.2663 5.06165C1.2663 5.80538 1.44001 5.90523 1.46904 5.92192C1.5125 5.94697 1.59385 5.97387 1.75687 5.98585C1.88116 5.99498 2.00923 5.99402 2.16831 5.99282C2.22753 5.99238 2.29105 5.9919 2.36028 5.9919H13.94C14.0093 5.9919 14.0728 5.99238 14.132 5.99282C14.2911 5.99402 14.4192 5.99498 14.5434 5.98585C14.7065 5.97387 14.7872 5.94733 14.8307 5.92228C14.8597 5.90559 15.034 5.80538 15.034 5.06165C15.034 4.46488 14.8779 4.31789 14.7988 4.2649C14.6596 4.1717 14.4149 4.1314 13.94 4.1314H2.36028C1.88545 4.1314 1.64071 4.1717 1.50156 4.2649ZM0.880346 3.33742C1.33841 3.03062 1.91973 3.0151 2.36028 3.0151H13.94C14.3806 3.0151 14.9619 3.03062 15.42 3.33742C15.9381 3.68445 16.1503 4.28165 16.1503 5.06165C16.1503 5.91251 15.9582 6.56087 15.3881 6.88945C15.1329 7.0365 14.8578 7.08205 14.6253 7.09914C14.4517 7.1119 14.2587 7.11037 14.0865 7.109C14.0355 7.10859 13.9863 7.1082 13.94 7.1082H2.36028C2.31398 7.1082 2.2648 7.10859 2.21379 7.109C2.04165 7.11037 1.84864 7.1119 1.67506 7.09914C1.44248 7.08205 1.1674 7.0365 0.912249 6.88945C0.342119 6.56087 0.150002 5.91251 0.150002 5.06165C0.150002 4.28165 0.36223 3.68445 0.880346 3.33742Z" fill="#E50D32"/>
<path fill-rule="evenodd" clip-rule="evenodd" d="M14.5767 6.11328C14.8795 6.17134 15.0778 6.46383 15.0197 6.76657L13.7695 13.2856C13.6379 13.973 13.4659 14.7349 12.9302 15.2962C12.3706 15.8826 11.5238 16.15 10.2966 16.15H5.80909C4.65422 16.15 3.81227 15.8615 3.23329 15.2752C2.67005 14.7048 2.44331 13.9371 2.31879 13.1822L1.26931 6.75134C1.21966 6.4471 1.42605 6.16023 1.73028 6.11058C2.03451 6.06093 2.32139 6.26731 2.37104 6.57154L3.42021 13.0005C3.42018 13.0003 3.42024 13.0007 3.42021 13.0005C3.53383 13.6891 3.71276 14.172 4.0276 14.4908C4.32678 14.7938 4.83555 15.0337 5.80909 15.0337H10.2966C11.3839 15.0337 11.8655 14.795 12.1226 14.5256C12.4037 14.2311 12.5368 13.7874 12.6731 13.0757L13.9234 6.55631C13.9815 6.25357 14.274 6.05522 14.5767 6.11328Z" fill="#E50D32"/>
<path d="M6.16951 1.10231L6.0633 0.996394V0.996394L6.16951 1.10231ZM6.16842 0.312971L6.0625 0.419183L6.16842 0.312971ZM3.47551 3.80376L3.58172 3.90968V3.90968L3.47551 3.80376ZM2.68507 3.01551L2.79129 3.12143L2.68507 3.01551ZM5.37908 0.31406L5.48529 0.419979V0.419979L5.37908 0.31406ZM10.9102 0.314017L11.0165 0.208097L11.0165 0.208097L10.9102 0.314017ZM13.6042 3.01546L13.498 3.12138L13.6042 3.01546ZM12.8138 3.80372L12.7076 3.90964L12.8138 3.80372ZM10.1198 1.10227L10.0136 1.20819V1.20819L10.1198 1.10227ZM1.50156 4.2649L1.41808 4.14028H1.41808L1.50156 4.2649ZM1.46904 5.92192L1.54394 5.79196L1.54379 5.79188L1.46904 5.92192ZM1.75687 5.98585L1.74587 6.13544H1.74587L1.75687 5.98585ZM2.16831 5.99282L2.16718 5.84283L2.16831 5.99282ZM14.132 5.99282L14.1331 5.84283L14.132 5.99282ZM14.5434 5.98585L14.5324 5.83625L14.5434 5.98585ZM14.8307 5.92228L14.7559 5.79223L14.7558 5.79232L14.8307 5.92228ZM14.7988 4.2649L14.7153 4.38953H14.7153L14.7988 4.2649ZM0.880346 3.33742L0.796872 3.21279L0.880346 3.33742ZM15.42 3.33742L15.5034 3.21279H15.5034L15.42 3.33742ZM15.3881 6.88945L15.3132 6.75949L15.3881 6.88945ZM14.6253 7.09914L14.6362 7.24874L14.6253 7.09914ZM14.0865 7.109L14.0877 6.959L14.0865 7.109ZM2.21379 7.109L2.2126 6.959H2.2126L2.21379 7.109ZM1.67506 7.09914L1.68605 6.94955L1.67506 7.09914ZM0.912249 6.88945L0.837349 7.01941L0.912249 6.88945ZM15.0197 6.76657L15.1671 6.79482L15.0197 6.76657ZM14.5767 6.11328L14.605 5.96596L14.5767 6.11328ZM13.7695 13.2856L13.6222 13.2574L13.6222 13.2574L13.7695 13.2856ZM12.9302 15.2962L13.0387 15.3998L12.9302 15.2962ZM3.23329 15.2752L3.34002 15.1698L3.23329 15.2752ZM2.31879 13.1822L2.17075 13.2063L2.17079 13.2066L2.31879 13.1822ZM1.26931 6.75134L1.12127 6.7755L1.26931 6.75134ZM1.73028 6.11058L1.70612 5.96253L1.73028 6.11058ZM2.37104 6.57154L2.51908 6.54738L2.37104 6.57154ZM4.0276 14.4908L3.92087 14.5962V14.5962L4.0276 14.4908ZM12.1226 14.5256L12.0141 14.422V14.422L12.1226 14.5256ZM12.6731 13.0757L12.5258 13.0474L12.5258 13.0475L12.6731 13.0757ZM13.9234 6.55631L14.0707 6.58457L13.9234 6.55631ZM6.27572 1.20823C6.55189 0.931302 6.55127 0.482927 6.27434 0.206759L6.0625 0.419183C6.22212 0.578356 6.22247 0.836782 6.0633 0.996394L6.27572 1.20823ZM3.58172 3.90968L6.27572 1.20823L6.0633 0.996394L3.36929 3.69784L3.58172 3.90968ZM2.58024 3.91106C2.85717 4.18723 3.30555 4.18661 3.58172 3.90968L3.36929 3.69784C3.21012 3.85745 2.95169 3.85781 2.79208 3.69864L2.58024 3.91106ZM2.57886 2.90959C2.30269 3.18652 2.30331 3.63489 2.58024 3.91106L2.79208 3.69864C2.63247 3.53947 2.63211 3.28104 2.79129 3.12143L2.57886 2.90959ZM5.27287 0.20814L2.57886 2.90959L2.79129 3.12143L5.48529 0.419979L5.27287 0.20814ZM6.27434 0.206759C5.99741 -0.0694095 5.54904 -0.068791 5.27287 0.20814L5.48529 0.419979C5.64446 0.260367 5.90289 0.260011 6.0625 0.419183L6.27434 0.206759ZM11.0165 0.208097C10.7403 -0.0688336 10.2919 -0.0694521 10.015 0.206716L10.2268 0.419141C10.3864 0.259968 10.6449 0.260324 10.804 0.419937L11.0165 0.208097ZM13.7105 2.90954L11.0165 0.208097L10.804 0.419937L13.498 3.12138L13.7105 2.90954ZM13.7091 3.91102C13.986 3.63485 13.9866 3.18648 13.7105 2.90954L13.498 3.12138C13.6572 3.281 13.6569 3.53942 13.4972 3.6986L13.7091 3.91102ZM12.7076 3.90964C12.9838 4.18657 13.4321 4.18719 13.7091 3.91102L13.4972 3.6986C13.3376 3.85777 13.0792 3.85741 12.92 3.6978L12.7076 3.90964ZM10.0136 1.20819L12.7076 3.90964L12.92 3.6978L10.226 0.996352L10.0136 1.20819ZM10.015 0.206716C9.73805 0.482884 9.73743 0.93126 10.0136 1.20819L10.226 0.996352C10.0668 0.836739 10.0672 0.578313 10.2268 0.419141L10.015 0.206716ZM1.4163 5.06165C1.4163 4.77478 1.45406 4.61028 1.49282 4.51682C1.52935 4.42875 1.56765 4.40118 1.58503 4.38953L1.41808 4.14028C1.35636 4.18161 1.27703 4.25403 1.21571 4.40189C1.15662 4.54437 1.1163 4.75175 1.1163 5.06165H1.4163ZM1.54379 5.79188C1.54189 5.79078 1.54286 5.79133 1.54334 5.7917C1.54356 5.79186 1.54167 5.79048 1.53811 5.7864C1.53095 5.7782 1.51479 5.75649 1.49643 5.70967C1.45895 5.61407 1.4163 5.4241 1.4163 5.06165H1.1163C1.1163 5.44293 1.16051 5.67475 1.21713 5.81918C1.24583 5.89238 1.27855 5.94525 1.31212 5.9837C1.34733 6.02403 1.37892 6.04313 1.39429 6.05197L1.54379 5.79188ZM1.76786 5.83625C1.61427 5.82496 1.559 5.80064 1.54394 5.79196L1.39414 6.05188C1.466 6.0933 1.57343 6.12277 1.74587 6.13544L1.76786 5.83625ZM2.16718 5.84283C2.00662 5.84403 1.88494 5.84485 1.76786 5.83625L1.74587 6.13544C1.87737 6.14511 2.01185 6.144 2.16943 6.14282L2.16718 5.84283ZM2.36028 5.8419C2.29041 5.8419 2.22636 5.84238 2.16718 5.84283L2.16943 6.14282C2.2287 6.14237 2.29169 6.1419 2.36028 6.1419V5.8419ZM13.94 5.8419H2.36028V6.1419H13.94V5.8419ZM14.1331 5.84283C14.074 5.84238 14.0099 5.8419 13.94 5.8419V6.1419C14.0086 6.1419 14.0716 6.14237 14.1309 6.14282L14.1331 5.84283ZM14.5324 5.83625C14.4154 5.84485 14.2937 5.84403 14.1331 5.84283L14.1309 6.14282C14.2885 6.144 14.4229 6.14511 14.5544 6.13544L14.5324 5.83625ZM14.7558 5.79232C14.7408 5.80092 14.6863 5.82494 14.5324 5.83625L14.5544 6.13544C14.7266 6.12279 14.8336 6.09374 14.9056 6.05224L14.7558 5.79232ZM14.884 5.06165C14.884 5.42405 14.8412 5.61407 14.8036 5.70973C14.7852 5.75658 14.769 5.77835 14.7617 5.78662C14.7599 5.78874 14.7585 5.79011 14.7577 5.79091C14.7572 5.79131 14.7569 5.79159 14.7567 5.79176C14.7565 5.79193 14.7564 5.79201 14.7564 5.79201C14.7564 5.79201 14.7565 5.79196 14.7566 5.79187C14.7567 5.79177 14.7569 5.79168 14.757 5.79158C14.7573 5.7914 14.7575 5.7913 14.7559 5.79223L14.9054 6.05232C14.9208 6.0435 14.9524 6.0244 14.9876 5.98408C15.0212 5.94563 15.054 5.89273 15.0828 5.81948C15.1396 5.67493 15.184 5.44298 15.184 5.06165H14.884ZM14.7153 4.38953C14.7327 4.40118 14.771 4.42875 14.8075 4.51682C14.8462 4.61028 14.884 4.77478 14.884 5.06165H15.184C15.184 4.75175 15.1437 4.54437 15.0846 4.40189C15.0233 4.25403 14.9439 4.18161 14.8822 4.14027L14.7153 4.38953ZM13.94 4.2814C14.1745 4.2814 14.3454 4.29144 14.4719 4.31137C14.5989 4.33137 14.671 4.35984 14.7153 4.38953L14.8822 4.14028C14.7874 4.07676 14.6675 4.03848 14.5186 4.01503C14.3693 3.99151 14.1804 3.9814 13.94 3.9814V4.2814ZM2.36028 4.2814H13.94V3.9814H2.36028V4.2814ZM1.58503 4.38953C1.62935 4.35984 1.70142 4.33137 1.82838 4.31137C1.95496 4.29144 2.12585 4.2814 2.36028 4.2814V3.9814C2.11988 3.9814 1.93099 3.99151 1.7817 4.01503C1.6328 4.03848 1.51291 4.07676 1.41808 4.14028L1.58503 4.38953ZM2.36028 2.8651C1.92369 2.8651 1.29758 2.87743 0.796872 3.21279L0.96382 3.46205C1.37924 3.18381 1.91578 3.1651 2.36028 3.1651V2.8651ZM13.94 2.8651H2.36028V3.1651H13.94V2.8651ZM15.5034 3.21279C15.0027 2.87743 14.3766 2.8651 13.94 2.8651V3.1651C14.3845 3.1651 14.9211 3.18381 15.3365 3.46205L15.5034 3.21279ZM16.3003 5.06165C16.3003 4.25761 16.0809 3.59955 15.5034 3.21279L15.3365 3.46205C15.7953 3.76934 16.0003 4.30569 16.0003 5.06165H16.3003ZM15.463 7.01941C16.1065 6.64855 16.3003 5.92536 16.3003 5.06165H16.0003C16.0003 5.89965 15.8099 6.4732 15.3132 6.75949L15.463 7.01941ZM14.6362 7.24874C14.8782 7.23096 15.1794 7.18283 15.463 7.01941L15.3132 6.75949C15.0864 6.89016 14.8374 6.93315 14.6143 6.94955L14.6362 7.24874ZM14.0853 7.25899C14.2561 7.26035 14.4555 7.26203 14.6362 7.24874L14.6143 6.94955C14.4479 6.96177 14.2612 6.96038 14.0877 6.959L14.0853 7.25899ZM13.94 7.2582C13.9856 7.2582 14.0342 7.25859 14.0853 7.25899L14.0877 6.959C14.0368 6.9586 13.987 6.9582 13.94 6.9582V7.2582ZM2.36028 7.2582H13.94V6.9582H2.36028V7.2582ZM2.21498 7.25899C2.26612 7.25859 2.31468 7.2582 2.36028 7.2582V6.9582C2.31327 6.9582 2.26348 6.9586 2.2126 6.959L2.21498 7.25899ZM1.66406 7.24874C1.84484 7.26203 2.04416 7.26035 2.21498 7.25899L2.2126 6.959C2.03913 6.96038 1.85244 6.96177 1.68605 6.94955L1.66406 7.24874ZM0.837349 7.01941C1.12091 7.18283 1.42208 7.23096 1.66406 7.24874L1.68605 6.94955C1.46289 6.93315 1.21389 6.89016 0.987149 6.75949L0.837349 7.01941ZM1.51992e-06 5.06165C1.51992e-06 5.92536 0.193848 6.64855 0.837349 7.01941L0.987149 6.75949C0.49039 6.4732 0.300002 5.89965 0.300002 5.06165H1.51992e-06ZM0.796872 3.21279C0.219439 3.59955 1.51992e-06 4.25761 1.51992e-06 5.06165H0.300002C0.300002 4.30569 0.50502 3.76934 0.96382 3.46205L0.796872 3.21279ZM15.1671 6.79482C15.2407 6.41072 14.9891 6.03963 14.605 5.96596L14.5485 6.26059C14.7698 6.30305 14.9149 6.51693 14.8724 6.73831L15.1671 6.79482ZM13.9168 13.3139L15.1671 6.79482L14.8724 6.73831L13.6222 13.2574L13.9168 13.3139ZM13.0387 15.3998C13.6086 14.8027 13.7858 13.9983 13.9168 13.3138L13.6222 13.2574C13.49 13.9477 13.3233 14.6671 12.8217 15.1927L13.0387 15.3998ZM10.2966 16.3C11.5425 16.3 12.4384 16.0288 13.0387 15.3998L12.8217 15.1927C12.3028 15.7364 11.5052 16 10.2966 16V16.3ZM5.80909 16.3H10.2966V16H5.80909V16.3ZM3.12655 15.3806C3.74319 16.005 4.62998 16.3 5.80909 16.3V16C4.67846 16 3.88134 15.718 3.34002 15.1698L3.12655 15.3806ZM2.17079 13.2066C2.29678 13.9704 2.52996 14.7764 3.12655 15.3806L3.34002 15.1698C2.81013 14.6331 2.58984 13.9037 2.46679 13.1578L2.17079 13.2066ZM1.70612 5.96253C1.32012 6.02553 1.05828 6.3895 1.12127 6.7755L1.41736 6.72718C1.38105 6.50471 1.53197 6.29492 1.75444 6.25862L1.70612 5.96253ZM2.51908 6.54738C2.45609 6.16139 2.09211 5.89954 1.70612 5.96253L1.75444 6.25862C1.97691 6.22231 2.18669 6.37323 2.223 6.5957L2.51908 6.54738ZM3.56825 12.9763L2.51908 6.54738L2.223 6.5957L3.27217 13.0247L3.56825 12.9763ZM3.5682 12.976C3.5682 12.976 3.5682 12.976 3.5682 12.976C3.56819 12.976 3.5682 12.976 3.5682 12.976C3.5682 12.976 3.5682 12.976 3.5682 12.976C3.56819 12.976 3.5682 12.976 3.56819 12.976C3.56819 12.976 3.56819 12.976 3.56819 12.976C3.56819 12.976 3.56819 12.976 3.56819 12.976C3.56819 12.976 3.56819 12.976 3.56819 12.976C3.56819 12.976 3.56819 12.976 3.56819 12.976C3.44466 13.1484 3.27221 13.0249 3.27221 13.0249C3.27221 13.0249 3.27221 13.0249 3.27221 13.0249C3.27221 13.0249 3.27221 13.0249 3.27221 13.0249C3.27222 13.025 3.27222 13.025 3.27222 13.025C3.27222 13.025 3.27222 13.025 3.27222 13.025C3.27222 13.025 3.27222 13.025 3.27222 13.025C3.27222 13.025 3.44467 13.1485 3.56821 12.9761C3.56821 12.9761 3.56821 12.9761 3.56821 12.9761C3.56821 12.9761 3.56821 12.9761 3.56821 12.9761C3.56821 12.9761 3.56821 12.9761 3.56821 12.9761C3.56821 12.9761 3.56821 12.9761 3.56821 12.9761C3.5681 12.9754 3.56831 12.9767 3.5682 12.9761C3.5682 12.976 3.56821 12.9761 3.5682 12.976L3.27221 13.0249C3.27222 13.025 3.27222 13.025 3.27222 13.025C3.27222 13.025 3.27221 13.0249 3.27222 13.025C3.27222 13.025 3.27222 13.025 3.27222 13.025C3.27222 13.025 3.27222 13.025 3.27222 13.025C3.27222 13.025 3.27222 13.025 3.27222 13.025C3.27222 13.025 3.27222 13.025 3.27222 13.025C3.27222 13.025 3.27222 13.025 3.27222 13.025C3.27222 13.025 3.27222 13.025 3.27222 13.025C3.27222 13.025 3.27222 13.025 3.27222 13.025C3.39576 12.8525 3.56821 12.9761 3.56821 12.9761C3.56821 12.9761 3.56821 12.9761 3.56821 12.9761C3.5682 12.9761 3.56821 12.9761 3.5682 12.976C3.5682 12.976 3.56819 12.976 3.56819 12.976C3.56819 12.976 3.56819 12.976 3.56819 12.976C3.56819 12.976 3.39574 12.8525 3.27221 13.0249C3.27221 13.0249 3.27221 13.0249 3.27221 13.0249C3.27221 13.0249 3.27221 13.0249 3.27221 13.0249C3.27221 13.0249 3.27221 13.0249 3.27221 13.0249C3.27221 13.0249 3.27221 13.0249 3.27221 13.0249C3.27232 13.0256 3.2721 13.0243 3.27221 13.0249C3.27222 13.025 3.27221 13.0249 3.27221 13.0249L3.5682 12.976ZM4.13433 14.3854C3.85289 14.1004 3.68038 13.6558 3.56821 12.9761L3.27221 13.0249C3.38729 13.7223 3.57263 14.2436 3.92087 14.5962L4.13433 14.3854ZM5.80909 14.8837C4.8601 14.8837 4.39601 14.6504 4.13433 14.3854L3.92087 14.5962C4.25755 14.9372 4.81099 15.1837 5.80909 15.1837V14.8837ZM10.2966 14.8837H5.80909V15.1837H10.2966V14.8837ZM12.0141 14.422C11.7975 14.649 11.3648 14.8837 10.2966 14.8837V15.1837C11.4029 15.1837 11.9335 14.941 12.2312 14.6291L12.0141 14.422ZM12.5258 13.0475C12.3888 13.763 12.2608 14.1635 12.0141 14.422L12.2312 14.6291C12.5466 14.2986 12.6849 13.8118 12.8205 13.1039L12.5258 13.0475ZM13.7761 6.52806L12.5258 13.0474L12.8205 13.1039L14.0707 6.58457L13.7761 6.52806ZM14.605 5.96596C14.2209 5.8923 13.8498 6.14396 13.7761 6.52806L14.0707 6.58457C14.1132 6.36318 14.3271 6.21814 14.5485 6.26059L14.605 5.96596ZM1.12127 6.7755L2.17075 13.2063L2.46683 13.158L1.41736 6.72718L1.12127 6.7755Z" fill="#E50D32"/>
<path fill-rule="evenodd" clip-rule="evenodd" d="M8.04097 12.9874C7.85342 12.9874 7.70139 12.8353 7.70139 12.6478L7.70139 8.86174C7.70139 8.67419 7.85342 8.52216 8.04097 8.52216L8.25485 8.52216C8.44239 8.52216 8.59443 8.67419 8.59443 8.86174L8.59443 12.6478C8.59443 12.8353 8.44239 12.9874 8.25485 12.9874L8.04097 12.9874Z" fill="#E50D32" stroke="#E50D32" stroke-width="0.3"/>
<path fill-rule="evenodd" clip-rule="evenodd" d="M10.3779 10.8617C10.3779 11.0492 10.2259 11.2013 10.0383 11.2013H6.25227C6.06472 11.2013 5.91269 11.0492 5.91269 10.8617V10.6478C5.91269 10.4603 6.06473 10.3082 6.25227 10.3082H10.0383C10.2259 10.3082 10.3779 10.4603 10.3779 10.6478V10.8617Z" fill="#E50D32" stroke="#E50D32" stroke-width="0.3"/>
</svg>
