<svg width="20" height="22" viewBox="0 0 20 22" fill="none" xmlns="http://www.w3.org/2000/svg">
<path fill-rule="evenodd" clip-rule="evenodd" d="M9.79857 4.43994C10.2956 4.43994 10.6986 4.84289 10.6986 5.33994V8.66994C10.6986 9.167 10.2956 9.56994 9.79857 9.56994C9.30152 9.56994 8.89857 9.167 8.89857 8.66994V5.33994C8.89857 4.84289 9.30152 4.43994 9.79857 4.43994Z" fill="#2A2C39"/>
<path fill-rule="evenodd" clip-rule="evenodd" d="M2.25749 7.56C2.25749 3.38294 5.64044 0 9.81749 0C13.975 0 17.3761 3.40289 17.3875 7.55754L17.3875 7.56L17.3875 9.66C17.3875 9.88866 17.4386 10.2297 17.539 10.5952C17.6397 10.9611 17.7699 11.2792 17.8881 11.475L17.8896 11.4775L19.1596 13.5975C20.1832 15.3082 19.3712 17.5308 17.4721 18.1638C12.5077 19.8152 7.13784 19.8153 2.17342 18.164C1.21809 17.8455 0.501267 17.1757 0.180761 16.3081C-0.139605 15.4409 -0.031509 14.4657 0.484192 13.5996L0.485429 13.5975L1.75543 11.4775L1.75692 11.475C1.87573 11.2781 2.00588 10.9618 2.10613 10.5982C2.20623 10.2352 2.25749 9.89417 2.25749 9.66V7.56ZM9.81749 1.8C6.63455 1.8 4.05749 4.37706 4.05749 7.56V9.66C4.05749 10.1058 3.96875 10.6148 3.84136 11.0768C3.71425 11.5377 3.52967 12.0208 3.29885 12.4037C3.29859 12.4041 3.29832 12.4046 3.29806 12.405L2.0308 14.5204C2.03061 14.5208 2.03042 14.5211 2.03023 14.5214C1.76648 14.9649 1.75467 15.3743 1.86923 15.6844C1.98372 15.9943 2.25743 16.2946 2.7421 16.4562C7.33736 17.9846 12.3076 17.9846 16.9029 16.4562C17.7038 16.1892 18.0516 15.2514 17.6152 14.5221L16.3469 12.405C16.3466 12.4045 16.3463 12.404 16.3461 12.4036C16.1146 12.0196 15.9302 11.5333 15.8034 11.0723C15.6764 10.6103 15.5875 10.1013 15.5875 9.66V7.56144C15.5783 4.39656 12.9796 1.8 9.81749 1.8Z" fill="#2A2C39"/>
<path fill-rule="evenodd" clip-rule="evenodd" d="M7.36849 17.7198C7.36849 18.3779 7.6441 18.9926 8.08489 19.4334C8.52566 19.8742 9.14038 20.1498 9.79847 20.1498C11.1314 20.1498 12.2285 19.0528 12.2285 17.7198H14.0285C14.0285 20.0469 12.1255 21.9498 9.79847 21.9498C8.63657 21.9498 7.57128 21.4654 6.8121 20.7062C6.05289 19.947 5.56849 18.8817 5.56849 17.7198H7.36849Z" fill="#2A2C39"/>
</svg>
