<svg width="14" height="14" viewBox="0 0 14 14" fill="none" xmlns="http://www.w3.org/2000/svg">
<path d="M7 14.0039C13.4954 14.0039 14 9.14589 14 7.6568C14 4.21662 11.5818 2.82426 10.3091 2.56589C10.1917 2.54102 10.0697 2.54982 9.95717 2.59129C9.84461 2.63276 9.74605 2.7052 9.67288 2.80026C9.59971 2.89532 9.55489 3.00912 9.54361 3.12855C9.53232 3.24798 9.55502 3.36817 9.60909 3.47526C9.88048 3.9368 9.98579 4.47731 9.90754 5.00698C9.85218 5.09671 9.63454 5.10689 9.54291 5.10689C9.04145 5.10689 8.81427 4.4648 8.72454 4.08235C8.43691 2.86562 8.806 1.40198 9.19164 1.2098C9.32701 1.14467 9.43497 1.03374 9.49642 0.896656C9.55786 0.759572 9.56883 0.605169 9.52738 0.460775C9.48593 0.316381 9.39473 0.191307 9.26993 0.10769C9.14512 0.024073 8.99476 -0.0126954 8.84545 0.00389255C8.66091 0.0223471 4.92036 0.43662 3.00555 3.51153C2.9894 3.28115 3.028 3.05022 3.11818 2.83762C3.1818 2.71166 3.20174 2.56812 3.17487 2.42958C3.148 2.29105 3.07585 2.16537 2.96975 2.07232C2.86366 1.97927 2.72965 1.92413 2.58879 1.91556C2.44794 1.90699 2.30823 1.94548 2.19164 2.02498C2.1 2.0848 0 3.52935 0 7.01853C0 11.5857 2.41818 14.0039 7 14.0039ZM1.83718 4.42662C1.93139 4.87518 2.06011 5.31579 2.22218 5.74453C2.26917 5.87036 2.35477 5.9781 2.46672 6.05231C2.57868 6.12653 2.71124 6.16342 2.84544 6.15769C2.97964 6.15197 3.10858 6.10394 3.21381 6.02046C3.31904 5.93699 3.39516 5.82236 3.43127 5.69298C3.7204 4.7209 4.24929 3.83711 4.9693 3.12288C5.68932 2.40865 6.57734 1.8869 7.55173 1.60562C7.30333 2.50953 7.28147 3.46071 7.48809 4.37507C7.78845 5.6478 8.53873 6.37962 9.54482 6.37962C9.82699 6.40358 10.1104 6.35089 10.3651 6.22712C10.6198 6.10335 10.8364 5.91309 10.9919 5.67644C11.2125 5.27453 11.2884 4.80907 11.207 4.35789C11.7157 4.73712 12.1213 5.23768 12.3869 5.81392C12.6524 6.39016 12.7694 7.02372 12.7273 7.6568C12.7273 9.54935 11.9834 12.7312 7 12.7312C3.14618 12.7312 1.27273 10.8622 1.27273 7.01853C1.25545 6.12229 1.44879 5.23451 1.83718 4.42662Z" fill="white"/>
</svg>
