<svg width="22" height="22" viewBox="0 0 22 22" fill="none" xmlns="http://www.w3.org/2000/svg">
<path fill-rule="evenodd" clip-rule="evenodd" d="M11.0003 5.88712C9.57004 5.88712 8.42347 7.04082 8.42347 8.46397C8.42347 9.83774 9.49663 10.9578 10.8564 11.029C10.9501 11.0214 11.0499 11.0207 11.147 11.0289C12.5009 10.9565 13.5683 9.8408 13.5772 8.46181C13.576 7.04116 12.4213 5.88712 11.0003 5.88712ZM6.89569 8.46397C6.89569 6.20008 8.72325 4.35934 11.0003 4.35934C13.2658 4.35934 15.105 6.19857 15.105 8.46397V8.46828C15.0925 10.6768 13.3554 12.4828 11.1486 12.558C11.1048 12.5595 11.061 12.5572 11.0176 12.5512C11.0174 12.5512 11.0178 12.5512 11.0176 12.5512C11.015 12.551 11.01 12.5508 11.0042 12.5508C10.9917 12.5508 10.9801 12.5516 10.9729 12.5525C10.9328 12.5575 10.8924 12.5594 10.8521 12.558C8.64922 12.4829 6.89569 10.6797 6.89569 8.46397Z" fill="#2A2C39"/>
<path fill-rule="evenodd" clip-rule="evenodd" d="M6.36192 16.5241C5.57744 17.0524 5.13895 17.657 4.96808 18.2317C6.60402 19.6016 8.70131 20.4215 10.9994 20.4215C13.2974 20.4215 15.3947 19.6016 17.0306 18.2317C16.8597 17.6568 16.4209 17.0519 15.6358 16.5234C14.4031 15.6989 12.727 15.2627 11.007 15.2627C9.28772 15.2627 7.60579 15.6986 6.36192 16.5241ZM11.007 13.7349C12.9583 13.7349 14.9485 14.2253 16.4862 15.2542L16.4879 15.2553C17.7128 16.0795 18.4921 17.1983 18.6238 18.436C18.6494 18.6773 18.559 18.9163 18.3801 19.0802C16.4319 20.8642 13.846 21.9492 10.9994 21.9492C8.15271 21.9492 5.56683 20.8642 3.61866 19.0802C3.43974 18.9163 3.34928 18.6773 3.37495 18.436C3.50662 17.1983 4.28593 16.0795 5.51087 15.2553L5.51466 15.2527C7.06135 14.2254 9.05541 13.7349 11.007 13.7349Z" fill="#2A2C39"/>
<path fill-rule="evenodd" clip-rule="evenodd" d="M0 11C0 4.92486 4.92486 0 11 0C17.0751 0 22 4.92486 22 11C22 17.0751 17.0751 22 11 22C4.92486 22 0 17.0751 0 11ZM11 1.62963C5.82488 1.62963 1.62963 5.82488 1.62963 11C1.62963 16.1751 5.82489 20.3704 11 20.3704C16.1751 20.3704 20.3704 16.1751 20.3704 11C20.3704 5.82489 16.1751 1.62963 11 1.62963Z" fill="#2A2C39"/>
</svg>
