<svg width="26" height="26" viewBox="0 0 26 26" fill="none" xmlns="http://www.w3.org/2000/svg">
<path fill-rule="evenodd" clip-rule="evenodd" d="M20.0497 7.3223C21.4624 8.00056 22.7713 8.629 23.7058 9.25762C24.652 9.89418 25.9979 11.0442 26 12.9706C26.0022 14.8969 24.6588 16.0499 23.7139 16.6885C22.7809 17.3192 21.4733 17.9503 20.0622 18.6317L7.56427 24.668C6.70212 25.0847 5.81515 25.5135 5.06048 25.7509C4.2739 25.9983 2.80104 26.3101 1.45256 25.3144C0.104091 24.3187 -0.0140851 22.8322 0.00115053 22.0151C0.015768 21.2313 0.177926 20.2674 0.33555 19.3303L0.825899 16.4097C0.99684 15.3914 1.0823 14.8823 1.44264 14.58C1.80298 14.2776 2.32426 14.2776 3.36681 14.2776H13.0295C13.7408 14.2776 14.3173 13.7068 14.3173 13.0026C14.3173 12.2984 13.7408 11.7275 13.0295 11.7275H3.37397C2.3323 11.7275 1.81147 11.7275 1.45124 11.4256C1.09102 11.1235 1.00516 10.615 0.833446 9.59777L0.338963 6.66867C0.180707 5.73322 0.0178545 4.77048 0.00255438 3.98732C-0.0133896 3.17055 0.103576 1.68567 1.44917 0.688903C2.79475 -0.307855 4.26662 7.37199e-05 5.05357 0.245715C5.80813 0.481246 6.69506 0.907615 7.55686 1.3219L20.0497 7.3223Z" fill="white"/>
</svg>
